<?xml version="1.0" encoding="UTF-8" standalone="no"?><!DOCTYPE svg PUBLIC "-//W3C//DTD SVG 1.1//EN" "http://www.w3.org/Graphics/SVG/1.1/DTD/svg11.dtd"><svg width="100%" height="100%" viewBox="0 0 250 80" version="1.1" xmlns="http://www.w3.org/2000/svg" xmlns:xlink="http://www.w3.org/1999/xlink" xml:space="preserve" xmlns:serif="http://www.serif.com/" style="fill-rule:evenodd;clip-rule:evenodd;stroke-linejoin:round;stroke-miterlimit:2;"><rect id="Artboard1" x="0" y="0" width="250" height="80" style="fill:none;"/><g><path d="M15.63,55.597l-0,-24.079l-5.768,0c-2.188,0 -2.256,-6.271 0.046,-6.271l5.722,-0l-0,-9.796c-0,-2.259 7.553,-2.263 7.553,-0l-0,9.796l10.574,-0c2.279,-0 2.169,6.271 0,6.271l-10.574,0l-0,22.98c-0,2.311 0.063,5.733 2.016,7.517c0.648,0.593 1.729,0.379 2.607,0.379c2.358,0.002 6.358,-1.542 7.357,1.933c0.221,0.767 0.378,1.738 -0.078,2.393c-3.852,5.527 -11.923,3.55 -16.24,-0.08c-2.943,-2.475 -3.215,-7.71 -3.215,-11.043Z" style="fill:#34abeb;fill-rule:nonzero;"/><path d="M79.396,45.251c0,1.91 -0.976,3.296 -2.943,3.296l-27.132,0c0,8.371 7.903,17.211 16.719,14.65c1.328,-0.386 11.578,-5.99 11.726,-0.261c0.084,3.263 -2.705,4.386 -5.383,5.324c-6.013,2.107 -13.223,2.405 -19.194,-0.029c-12.046,-4.91 -12.642,-19.577 -10.322,-30.556c2.622,-12.409 20.179,-17.463 29.772,-9.916c4.852,3.818 6.757,10.166 6.757,16.119l0,1.373Zm-7.599,-2.243c0.069,-2.951 -0.273,-4.77 -1.438,-7.484c-2.278,-5.309 -9.616,-6.738 -14.427,-4.27c-4.22,2.163 -6.444,7.206 -6.611,11.754l22.476,0Z" style="fill:#34abeb;fill-rule:nonzero;"/><path d="M92.168,55.597l-0,-24.079l-5.768,0c-2.188,0 -2.256,-6.271 0.046,-6.271l5.722,-0l-0,-9.796c-0,-2.259 7.553,-2.263 7.553,-0l-0,9.796l10.574,-0c2.279,-0 2.169,6.271 0,6.271l-10.574,0l-0,22.98c-0,2.311 0.063,5.733 2.016,7.517c0.648,0.593 1.729,0.379 2.607,0.379c2.358,0.002 6.358,-1.542 7.357,1.933c0.221,0.767 0.378,1.738 -0.078,2.393c-3.852,5.527 -11.923,3.55 -16.24,-0.08c-2.943,-2.475 -3.215,-7.71 -3.215,-11.043Z" style="fill:#34abeb;fill-rule:nonzero;"/><path d="M157.262,67.636c-0,2.199 -7.553,2.204 -7.553,-0l-0,-24.124c-0,-2.011 -0.298,-4.059 -0.971,-5.954c-0.613,-1.724 -1.735,-3.236 -2.82,-4.709c-4.835,-6.557 -13.372,1.984 -16.58,5.994l0,28.793c0,2.204 -7.553,2.2 -7.553,-0l0,-61.157c0,-2.27 7.553,-2.274 7.553,-0l0,24.673c7.673,-8.105 21.657,-8.874 26.349,2.741c1.099,2.72 1.575,5.724 1.575,8.657l-0,25.086Z" style="fill:#34abeb;fill-rule:nonzero;"/><path d="M206.197,45.251c-0,1.91 -0.976,3.296 -2.943,3.296l-27.132,0c-0,8.371 7.903,17.211 16.719,14.65c1.328,-0.386 11.578,-5.99 11.726,-0.261c0.084,3.263 -2.706,4.386 -5.384,5.324c-6.012,2.107 -13.222,2.405 -19.193,-0.029c-12.046,-4.91 -12.643,-19.577 -10.323,-30.556c2.623,-12.409 20.18,-17.463 29.772,-9.916c4.853,3.818 6.758,10.166 6.758,16.119l-0,1.373Zm-7.599,-2.243c0.068,-2.951 -0.274,-4.77 -1.438,-7.484c-2.279,-5.309 -9.617,-6.738 -14.428,-4.27c-4.22,2.163 -6.444,7.206 -6.61,11.754l22.476,0Z" style="fill:#34abeb;fill-rule:nonzero;"/><path d="M225.24,40.536l-0,27.1c-0,2.204 -7.553,2.2 -7.553,-0l-0,-41.199c-0,-2.194 6.82,-2.21 6.82,0l0,5.997c2.246,-3.278 4.735,-6.43 8.629,-7.713c2.894,-0.954 7.922,-0.615 8.566,3.224c0.218,1.304 0.027,2.655 -0.166,3.962c-0.109,0.743 -0.813,0.829 -1.37,0.721c-3.242,-0.632 -3.764,-1.532 -7.144,-0.652c-3.836,0.999 -5.95,5.681 -7.782,8.56Z" style="fill:#34abeb;fill-rule:nonzero;"/></g></svg>