<?xml version="1.0" encoding="UTF-8" standalone="no"?><!DOCTYPE svg PUBLIC "-//W3C//DTD SVG 1.1//EN" "http://www.w3.org/Graphics/SVG/1.1/DTD/svg11.dtd"><svg width="100%" height="100%" viewBox="0 0 24 24" version="1.1" xmlns="http://www.w3.org/2000/svg" xmlns:xlink="http://www.w3.org/1999/xlink" xml:space="preserve" xmlns:serif="http://www.serif.com/" style="fill-rule:evenodd;clip-rule:evenodd;stroke-linejoin:round;stroke-miterlimit:2;"><rect x="0" y="0" width="24" height="24" style="fill:none;fill-rule:nonzero;"/><path d="M20.99,20.99l-17.99,-0c-1.1,-0 -2,-0.88 -2,-1.98l0,-4.01l2,-0l0,4.02l16.02,-0l1.97,1.97Zm0.01,-17.98c1.1,-0 2,0.89 2,2l0,14c0,0.362 -0.098,0.7 -0.268,0.991l-1.732,-1.732l0,-13.279l-13.279,-0l-1.98,-1.98l15.259,-0Zm-17.99,-0l1.98,1.98l-1.99,-0l0,4.01l-2,-0l0,-3.99c0,-1.1 0.9,-2 2,-2l0.01,-0Z" style="fill:#fff;fill-rule:nonzero;"/><path d="M2.101,2.101l-1.366,1.365l19.799,19.799l1.365,-1.366l-19.798,-19.798Z" style="fill:#fff;"/><path d="M9.917,9.917l3.125,3.125l-1.283,-0l0,1.041l-9.041,0c-2.26,-0.017 -2.252,-4.166 0.011,-4.166l7.188,-0Zm6.99,1.041l0.058,0c0.11,0 0.216,0.044 0.294,0.122c0.078,0.078 0.122,0.184 0.122,0.294l0.315,0.001c0.309,-0.798 1.331,0.164 1.331,0.625c0,0.461 -1.022,1.423 -1.331,0.625l-0.315,0.001c-0,0.11 -0.044,0.216 -0.122,0.294c-0.078,0.078 -0.184,0.122 -0.294,0.122l-0.058,-0l0,-2.084Zm-1.8,1.418l0,-1.418l1.472,0l0,2.084l-0.806,-0l-0.666,-0.666Zm-0.328,-1.418l0,1.09l-1.09,-1.09l1.09,0Z" style="fill:#fff;"/></svg>