<?xml version="1.0" encoding="UTF-8" standalone="no"?><!DOCTYPE svg PUBLIC "-//W3C//DTD SVG 1.1//EN" "http://www.w3.org/Graphics/SVG/1.1/DTD/svg11.dtd"><svg width="100%" height="100%" viewBox="0 0 24 24" version="1.1" xmlns="http://www.w3.org/2000/svg" xmlns:xlink="http://www.w3.org/1999/xlink" xml:space="preserve" xmlns:serif="http://www.serif.com/" style="fill-rule:evenodd;clip-rule:evenodd;stroke-linejoin:round;stroke-miterlimit:2;"><rect x="0" y="0" width="24" height="24" style="fill:none;fill-rule:nonzero;"/><path d="M21,3.01l-18,-0c-1.1,-0 -2,0.9 -2,2l0,3.99l2,0l0,-4.01l18,0l0,14.03l-18,-0l0,-4.02l-2,-0l0,4.01c0,1.1 0.9,1.98 2,1.98l18,-0c1.1,-0 2,-0.88 2,-1.98l0,-14c0,-1.11 -0.9,-2 -2,-2Z" style="fill:#fff;fill-rule:nonzero;"/><path d="M14.779,13.042l-3.02,-0l0,1.041l-9.041,0c-2.26,-0.017 -2.252,-4.166 0.011,-4.166l9.03,-0l0,1.041l3.02,0l0,2.084Zm2.128,-2.084l0.058,0c0.11,0 0.216,0.044 0.294,0.122c0.078,0.078 0.122,0.184 0.122,0.294l0.315,0.001c0.309,-0.798 1.331,0.164 1.331,0.625c0,0.461 -1.022,1.423 -1.331,0.625l-0.315,0.001c-0,0.11 -0.044,0.216 -0.122,0.294c-0.078,0.078 -0.184,0.122 -0.294,0.122l-0.058,-0l0,-2.084Zm-0.328,0l0,2.084l-1.472,-0l0,-2.084l1.472,0Z" style="fill:#fff;"/></svg>