<?xml version="1.0" encoding="UTF-8" standalone="no"?><!DOCTYPE svg PUBLIC "-//W3C//DTD SVG 1.1//EN" "http://www.w3.org/Graphics/SVG/1.1/DTD/svg11.dtd"><svg width="100%" height="100%" viewBox="0 0 24 24" version="1.1" xmlns="http://www.w3.org/2000/svg" xmlns:xlink="http://www.w3.org/1999/xlink" xml:space="preserve" xmlns:serif="http://www.serif.com/" style="fill-rule:evenodd;clip-rule:evenodd;stroke-linejoin:round;stroke-miterlimit:2;"><rect x="0" y="0" width="24" height="24" style="fill:none;fill-rule:nonzero;"/><path d="M2.101,2.101l-1.366,1.365l19.799,19.799l1.365,-1.366l-19.798,-19.798Z" style="fill:#fff;"/><path d="M20.99,20.99l-17.99,-0c-1.1,-0 -2,-0.88 -2,-1.98l0,-4.01l2,-0l0,4.02l16.02,-0l1.97,1.97Zm0.01,-17.98c1.1,-0 2,0.89 2,2l0,14c0,0.362 -0.098,0.7 -0.268,0.991l-1.732,-1.732l0,-13.279l-13.279,-0l-1.98,-1.98l15.259,-0Zm-10,7.99l2.5,2.5l-2.5,2.5l0,-3l-10,0l0,-2l10,0Zm0,-2.731l0,-0.269l4,4l-0.135,0.135l-3.865,-3.866Zm-7.99,-5.259l1.98,1.98l-1.99,0l0,4.01l-2,0l0,-3.99c0,-1.1 0.9,-2 2,-2l0.01,0Z" style="fill:#fff;fill-rule:nonzero;"/></svg>