<?xml version="1.0" encoding="UTF-8" standalone="no"?><!DOCTYPE svg PUBLIC "-//W3C//DTD SVG 1.1//EN" "http://www.w3.org/Graphics/SVG/1.1/DTD/svg11.dtd"><svg width="100%" height="100%" viewBox="0 0 18 18" version="1.1" xmlns="http://www.w3.org/2000/svg" xmlns:xlink="http://www.w3.org/1999/xlink" xml:space="preserve" xmlns:serif="http://www.serif.com/" style="fill-rule:evenodd;clip-rule:evenodd;stroke-linejoin:round;stroke-miterlimit:2;"><g><g><path d="M5.739,7.095l4.255,-0l0,0.931l3.327,-0l0,1.861l-3.327,0l0,0.931l-0.532,-0l-3.723,-3.723Zm-0.902,-0l3.723,3.723l-5.549,-0c-2.02,-0.016 -2.013,-3.723 0.01,-3.723l1.816,-0Zm9.867,0.931l0.116,-0c0.115,-0 0.209,0.093 0.209,0.208l-0,0.164l0.281,-0c0.277,-0.713 1.19,0.147 1.19,0.558c-0,0.412 -0.913,1.272 -1.19,0.559l-0.281,-0l-0,0.162c-0,0.116 -0.094,0.21 -0.21,0.21l-0.115,0l0,-1.861Zm-0.319,-0l-0,1.861l-0.745,0l0,-1.861l0.745,-0Z" style="fill:#fff;"/><path d="M3.47,5.728l-0.452,0.451l6.545,6.544l0.451,-0.451l-6.544,-6.544Z" style="fill:#fff;"/></g></g></svg>